<?xml version="1.0" standalone="no"?>
<!DOCTYPE svg PUBLIC "-//W3C//DTD SVG 20010904//EN"
 "http://www.w3.org/TR/2001/REC-SVG-20010904/DTD/svg10.dtd">
<svg version="1.0" xmlns="http://www.w3.org/2000/svg"
 width="3000.000000pt" height="3000.000000pt" viewBox="0 0 3000.000000 3000.000000"
 preserveAspectRatio="xMidYMid meet">
<metadata>
Created by potrace 1.16, written by Peter Selinger 2001-2019
</metadata>
<g transform="translate(0.000000,3000.000000) scale(0.100000,-0.100000)"
fill="#000000" stroke="none">
<path d="M15117 29039 c-167 -11 -245 -24 -467 -79 -325 -80 -277 -79 -564
-20 -169 34 -276 50 -330 51 -99 1 -93 4 59 29 l120 20 -135 -4 c-156 -5 -259
-24 -384 -72 -50 -19 -176 -55 -280 -81 -375 -90 -461 -111 -481 -118 -11 -3
-4 3 15 14 48 27 31 26 -91 -8 -126 -36 -298 -101 -446 -170 -60 -28 -163 -67
-228 -87 -304 -93 -581 -224 -766 -363 -24 -18 60 69 186 194 239 236 241 240
50 117 -138 -89 -317 -271 -649 -659 -146 -172 -269 -313 -271 -313 -7 0 7 26
58 110 67 111 76 119 -166 -157 -88 -101 -161 -183 -163 -183 -3 0 31 53 74
118 43 64 82 124 87 132 13 25 -125 -112 -367 -364 -270 -282 -426 -466 -570
-676 -9 -14 -1 11 17 55 19 44 35 89 35 99 0 19 0 19 -21 0 -34 -31 -137 -165
-274 -359 -70 -99 -129 -182 -132 -185 -3 -3 6 19 21 48 40 80 23 62 -35 -35
-75 -128 -156 -308 -204 -457 l-22 -69 -28 82 c-15 46 -30 79 -34 74 -4 -4
-54 -163 -111 -353 -57 -190 -105 -347 -108 -350 -3 -3 -2 38 1 90 2 52 2 122
-2 155 l-7 60 -7 -70 c-14 -125 -27 -183 -92 -408 -55 -194 -64 -237 -70 -341
-4 -66 -11 -127 -16 -135 -19 -33 -99 -452 -108 -566 -17 -204 -21 -299 -12
-289 5 5 24 57 42 117 17 59 34 105 36 103 2 -2 -1 -101 -7 -221 -5 -120 -8
-220 -6 -222 2 -3 21 47 42 111 21 63 40 114 41 112 2 -2 -1 -32 -6 -67 -44
-271 -54 -417 -60 -874 -4 -253 -6 -462 -4 -464 8 -12 20 22 54 152 l37 142 1
-245 c1 -135 6 -303 11 -375 6 -71 12 -177 15 -234 2 -57 7 -106 9 -108 3 -3
38 3 78 12 141 33 296 19 493 -42 101 -32 225 -82 225 -93 0 -4 53 -38 117
-76 160 -95 313 -238 444 -419 127 -174 296 -535 366 -783 28 -96 28 -99 26
-367 -2 -224 -6 -297 -25 -430 l-24 -160 -13 78 c-27 155 -34 102 -53 -438 -7
-198 -13 -513 -13 -700 l1 -340 37 -255 c21 -140 48 -311 62 -379 14 -69 23
-126 22 -128 -2 -1 -30 68 -61 155 -72 193 -130 331 -150 350 -13 13 -30 4
-143 -67 -197 -127 -392 -215 -505 -228 -26 -3 -48 -9 -48 -12 0 -8 84 -40
160 -61 l54 -15 23 -130 c100 -578 273 -1728 337 -2240 82 -651 101 -929 93
-1315 -10 -430 -54 -774 -163 -1275 -34 -159 -110 -465 -117 -471 -2 -2 -466
-243 -1032 -535 l-1028 -532 -743 -586 -742 -586 -204 -109 c-1210 -650 -1838
-1016 -1838 -1073 0 -19 67 -140 223 -401 403 -677 843 -1278 1382 -1887 210
-236 771 -799 1005 -1006 1941 -1723 4203 -2747 6745 -3053 834 -101 1749
-123 2510 -60 571 46 1096 123 1630 239 225 49 670 161 875 220 171 50 661
213 795 265 220 85 503 199 620 250 129 55 613 278 630 290 6 4 93 50 195 103
264 135 477 256 750 424 1729 1066 3146 2509 4192 4268 150 253 289 508 281
515 -4 3 -50 19 -101 35 l-93 29 -86 136 c-422 664 -812 1155 -1070 1349 -122
91 -274 154 -462 192 -100 20 -138 22 -646 24 -334 1 -572 6 -625 13 -47 7
-420 98 -830 204 l-745 193 -400 -12 c-602 -17 -1766 -27 -1857 -15 -42 5
-101 21 -130 35 -29 14 -126 51 -216 82 l-162 57 57 82 c64 92 298 410 415
565 88 115 129 190 165 296 l23 70 -6 -65 c-3 -36 -16 -134 -28 -217 -12 -84
-20 -153 -18 -153 7 0 91 191 125 281 39 105 92 328 102 432 4 37 11 67 14 67
8 0 23 -75 43 -215 l13 -90 6 50 c4 28 8 132 8 232 1 168 -11 283 -35 348 -8
21 142 -126 234 -228 l52 -58 -31 68 c-66 146 -139 360 -153 448 -5 37 -3 34
33 -35 22 -41 57 -120 78 -175 l38 -100 7 80 c4 44 14 184 23 310 8 127 21
275 28 330 l12 100 7 -115 c4 -63 9 -128 10 -145 2 -16 24 78 51 210 35 177
55 319 78 540 17 165 35 314 40 330 11 38 5 -50 -16 -220 -8 -66 -14 -158 -14
-205 0 -168 27 -369 48 -356 4 3 11 55 15 117 3 61 27 229 51 374 63 370 60
452 -24 671 -17 43 -23 70 -15 59 30 -38 78 -140 94 -200 l17 -60 7 75 c4 41
16 140 27 220 36 257 26 339 -65 523 -29 60 -50 105 -46 100 4 -4 51 -62 105
-128 54 -66 102 -124 106 -129 52 -58 -55 213 -112 285 -36 46 -31 49 19 12
34 -26 32 -23 -22 47 -107 138 -148 243 -227 583 -28 122 -59 248 -69 281 -24
81 -32 230 -15 270 7 17 18 87 24 156 5 69 21 168 35 220 14 52 28 131 32 175
l8 80 10 -45 10 -45 8 65 c21 154 -4 250 -114 442 -63 110 -90 141 -44 49 43
-83 30 -71 -33 31 -60 99 -151 231 -195 283 l-26 30 27 -50 c46 -88 9 -34 -76
108 -45 75 -86 137 -91 137 -5 0 -16 13 -25 29 -8 17 -38 58 -67 93 -29 35
-46 58 -38 52 128 -98 192 -144 225 -164 l40 -23 -44 39 c-24 21 -50 43 -57
47 -7 4 -56 60 -108 125 -52 64 -132 153 -177 197 -79 77 -84 77 -29 4 17 -23
-6 -8 -70 46 -52 44 -124 101 -160 127 -66 46 -180 113 -180 106 0 -3 27 -24
60 -48 33 -24 60 -45 60 -48 0 -2 -48 21 -106 52 -58 31 -102 51 -98 45 3 -6
44 -58 90 -115 46 -58 84 -107 84 -110 0 -8 -91 57 -178 129 -40 33 -72 53
-71 46 2 -8 -14 -40 -35 -72 -21 -32 -44 -73 -52 -90 l-14 -32 6 40 c4 22 15
62 26 89 10 27 17 51 14 53 -2 3 -33 -14 -68 -38 -35 -23 -58 -36 -52 -28 6 8
32 42 57 76 26 34 47 65 47 68 0 4 -25 -14 -55 -39 l-54 -47 -7 26 c-3 14 -4
49 -2 76 l5 51 -35 -7 c-19 -3 -96 -26 -171 -50 l-136 -44 45 39 c75 65 46 54
-130 -53 l-35 -21 41 49 c23 28 51 59 63 69 11 11 21 23 21 27 0 10 -200 -79
-307 -137 -83 -44 -96 -43 -68 6 31 55 10 41 -76 -50 -99 -104 -103 -95 -20
39 28 45 46 81 41 81 -12 0 -190 -191 -241 -260 l-42 -55 7 54 c4 29 16 76 26
104 11 28 18 52 17 54 -2 1 -72 -89 -156 -202 -84 -113 -158 -208 -164 -212
-6 -3 6 25 27 63 33 61 34 65 9 35 -70 -87 -73 -83 -18 23 37 73 50 105 37 95
-11 -8 -57 -44 -103 -80 -46 -37 -137 -103 -201 -148 -64 -44 -131 -98 -148
-119 -32 -37 -31 -36 9 46 23 45 39 82 37 82 -2 0 -36 -36 -75 -80 -39 -45
-71 -79 -71 -76 0 2 29 51 65 110 36 58 65 109 65 112 0 10 -343 -278 -529
-444 l-71 -64 25 57 c14 31 37 79 51 107 68 134 -31 -1 -151 -207 -32 -55 -63
-104 -67 -110 -12 -13 32 85 77 175 19 38 33 70 30 70 -7 0 -159 -259 -246
-420 -102 -190 -153 -315 -189 -463 -27 -114 -70 -372 -70 -426 0 -24 -197
-343 -544 -881 l-191 -295 -3 74 c-3 66 2 90 43 212 25 75 45 144 45 153 0 15
-20 24 -20 9 0 -5 -13 -23 -29 -42 l-29 -35 5 140 c5 159 24 238 99 411 24 56
44 104 44 107 0 3 -24 -3 -52 -14 -29 -10 -75 -22 -101 -25 -41 -5 -62 -18
-140 -82 -51 -42 -172 -156 -269 -254 -98 -99 -178 -177 -178 -175 0 2 20 55
44 118 53 134 82 235 72 246 -11 10 -46 -37 -123 -165 -36 -62 -68 -111 -70
-110 -1 2 15 56 37 120 22 64 40 129 40 144 0 27 0 27 -19 8 -11 -11 -45 -60
-75 -109 -31 -49 -56 -84 -56 -79 0 29 171 497 239 657 12 27 19 51 17 53 -4
4 -77 -54 -476 -379 -52 -42 -96 -76 -97 -74 -1 1 31 114 72 251 41 136 75
251 75 254 0 3 -30 -24 -66 -59 -40 -39 -64 -57 -61 -45 24 85 67 269 65 275
-2 5 -43 -38 -93 -96 -49 -57 -91 -100 -93 -96 -1 4 36 111 83 236 47 126 83
231 80 234 -7 7 -155 -71 -230 -121 -109 -73 -229 -174 -322 -270 -51 -53 -93
-93 -93 -90 0 3 38 122 85 265 83 251 125 400 125 445 0 41 -29 14 -136 -128
-58 -77 -107 -139 -109 -139 -3 0 4 21 14 48 10 26 39 99 64 162 26 63 45 116
43 117 -1 2 -33 -42 -70 -98 -38 -55 -70 -98 -72 -97 -2 2 24 109 56 238 33
129 58 236 56 237 -2 2 -178 -131 -391 -296 -213 -166 -389 -301 -391 -301 -2
0 -1 6 1 13 8 22 145 735 145 752 0 38 -29 1 -122 -156 -54 -90 -98 -159 -98
-153 0 5 20 70 45 144 25 74 45 137 44 140 0 3 -27 -48 -60 -112 -32 -65 -61
-118 -63 -118 -2 0 45 134 104 298 59 163 106 298 104 300 -1 2 -49 -27 -106
-63 -209 -136 -352 -245 -524 -402 -51 -46 -95 -83 -98 -83 -14 0 -1 56 84
346 49 170 88 309 86 311 -1 1 -52 -64 -112 -146 -60 -82 -111 -148 -112 -146
-2 2 24 103 58 225 34 122 60 223 58 225 -2 2 -52 -62 -112 -141 -59 -79 -110
-144 -112 -144 -2 0 -1 6 1 13 17 45 131 437 128 437 -2 0 -129 -110 -282
-244 -280 -246 -306 -266 -336 -266 -15 0 -16 36 -13 424 2 233 1 423 -1 421
-1 -2 -32 -91 -67 -197 l-63 -193 5 320 c4 234 2 315 -6 303 -13 -22 -92 -329
-116 -453 -18 -94 -40 -145 -28 -65 33 230 205 813 339 1155 134 343 240 561
406 841 186 314 389 613 588 867 96 123 62 111 366 128 127 7 353 9 620 5 231
-4 433 -3 449 2 40 11 53 34 40 69 -28 70 -28 69 -11 53 8 -8 25 -51 37 -95
42 -155 105 -304 175 -415 94 -150 258 -322 401 -420 43 -30 133 -108 199
-175 318 -319 657 -517 1026 -598 286 -64 599 -58 844 15 241 71 453 198 640
383 180 178 269 306 356 510 121 285 223 695 294 1180 15 99 28 181 29 182 8
8 240 96 316 119 78 24 113 29 195 29 89 0 106 -3 155 -28 98 -49 96 -44 51
-128 -47 -88 -98 -234 -117 -339 -23 -123 -30 -413 -11 -485 8 -33 15 -90 16
-127 1 -78 25 -156 73 -236 73 -120 250 -338 428 -527 358 -379 466 -532 511
-721 17 -71 20 -106 15 -173 -7 -93 -35 -214 -67 -288 -19 -45 -20 -56 -11
-158 18 -190 -13 -325 -120 -525 -103 -192 -110 -205 -89 -181 33 37 130 198
167 276 60 125 75 207 75 400 l-1 170 37 100 c34 93 37 108 37 216 l1 116 30
-24 c251 -205 426 -294 654 -332 145 -25 227 -26 371 -6 191 25 370 90 494
179 144 102 300 301 411 524 142 285 214 561 232 891 l6 120 34 12 c60 19 124
61 188 120 l62 58 -15 78 c-7 43 -15 79 -17 81 -2 3 -283 52 -297 52 -5 0 -8
9 -8 19 0 34 -48 204 -79 278 -70 171 -174 311 -341 461 -282 254 -562 396
-869 442 -142 21 -383 11 -536 -21 -93 -20 -220 -61 -296 -96 l-77 -35 -82 26
c-115 37 -213 50 -278 38 -58 -10 -59 -9 -5 24 31 19 34 23 17 24 -30 0 -165
-45 -225 -76 -28 -14 -48 -21 -44 -15 15 25 -14 7 -72 -44 -33 -30 -64 -55
-68 -55 -3 0 -57 23 -119 50 -75 33 -126 50 -153 50 -61 0 -622 -116 -695
-144 l-65 -24 -7 106 c-4 59 -8 118 -9 132 -2 21 7 30 58 57 72 39 67 42 -11
8 -66 -29 -64 -29 -64 -11 0 15 160 123 232 157 l43 20 -72 -6 c-62 -5 -122
-19 -224 -50 -46 -14 -10 6 87 50 86 39 94 45 64 45 -19 0 -62 -7 -95 -15 -90
-22 -89 -19 24 38 57 29 103 57 102 62 -2 29 -135 12 -213 -27 -21 -10 -39
-18 -41 -18 -3 0 6 27 20 61 13 33 23 63 20 65 -2 3 -31 -20 -62 -50 -32 -30
-62 -53 -67 -50 -4 3 -8 26 -8 52 0 53 -14 109 -32 135 -11 15 -12 3 -10 -65
l3 -83 -34 50 c-19 28 -54 68 -77 90 l-41 40 30 -68 c17 -38 31 -71 31 -73 0
-19 -227 76 -300 126 -30 20 -125 73 -210 118 -349 182 -678 300 -937 337
-412 59 -930 -45 -1211 -241 -37 -26 -114 -66 -172 -89 -100 -40 -335 -144
-372 -165 -23 -13 -23 -9 3 35 12 20 19 38 16 41 -3 3 -8 -4 -12 -15 -4 -12
-11 -18 -17 -15 -7 5 -9 2 -6 -8 6 -13 -31 -68 -45 -68 -5 0 5 19 58 113 9 15
12 33 8 40 -4 7 -9 21 -10 32 -2 11 -12 56 -24 100 -30 117 -30 117 -16 134
11 14 10 15 -7 1 -18 -14 -19 -13 -13 23 3 22 2 35 -4 32 -5 -4 -9 -1 -9 4 0
6 5 11 11 11 7 0 8 12 4 33 -4 21 -3 27 3 18 8 -11 12 -10 20 5 6 10 14 16 17
12 4 -4 0 -14 -9 -23 -9 -9 -16 -24 -16 -33 0 -30 30 11 33 44 1 16 7 32 12
36 6 5 5 8 -2 8 -7 0 -13 8 -13 18 0 13 2 14 9 3 7 -10 12 -11 27 -1 16 10 16
11 2 6 -19 -6 -25 9 -8 19 6 3 10 12 10 18 0 7 -4 6 -10 -3 -13 -20 -13 -4 1
21 8 15 14 18 23 9 11 -8 13 -4 10 20 -3 21 0 29 7 24 7 -4 7 2 -1 16 -9 16
-9 20 -1 15 8 -5 10 2 6 22 -5 25 -4 26 4 6 13 -30 16 -29 16 7 0 17 -4 30 -9
30 -5 0 -2 8 5 17 12 14 12 16 0 8 -10 -5 -12 -4 -7 3 10 17 26 15 26 -3 0
-16 25 -21 34 -6 3 4 1 22 -4 40 -5 19 -5 31 1 31 5 0 9 -5 9 -12 0 -6 2 -9 5
-7 2 3 0 21 -5 40 l-10 34 19 -24 19 -24 -3 27 c-4 33 4 58 15 51 5 -3 12 0
16 6 4 7 3 9 -3 6 -15 -9 -23 17 -11 34 8 11 9 11 5 -3 -6 -17 16 -19 30 -3 4
4 2 5 -4 1 -9 -5 -13 0 -13 13 0 10 4 21 9 23 5 2 12 23 15 48 6 43 6 44 -8
20 -8 -14 -12 -29 -9 -34 4 -5 1 -6 -5 -2 -18 11 12 61 37 63 14 1 19 -2 14
-10 -4 -7 0 -6 10 2 19 15 23 56 7 66 -5 3 -10 2 -10 -2 0 -5 -7 -18 -15 -29
-14 -16 -14 -15 0 14 9 18 20 30 24 27 5 -3 12 2 15 11 3 9 2 12 -5 8 -6 -3
-3 8 5 25 19 35 32 43 16 9 -11 -22 -10 -22 4 -4 10 12 14 30 11 48 -4 19 -2
27 5 23 6 -4 10 4 10 19 0 14 5 28 12 32 7 5 5 11 -7 21 -11 7 -14 13 -7 13
18 0 18 1 -155 544 -98 312 -153 438 -297 686 -30 52 -51 96 -48 97 4 1 84 7
177 13 94 6 186 15 205 19 33 8 34 8 10 14 -14 3 -70 13 -125 23 -55 9 -113
22 -130 29 -26 12 5 14 220 15 444 3 875 16 886 27 14 14 28 10 -291 80 l-265
58 169 3 c116 2 208 -3 290 -14 67 -9 142 -18 168 -19 92 -6 197 -27 488 -101
597 -152 1262 -337 1578 -439 79 -25 149 -44 155 -42 13 5 -292 156 -356 177
-67 21 -33 21 94 0 370 -62 766 -160 951 -235 l62 -25 -34 36 c-30 31 -122
104 -210 167 -25 17 -25 17 7 2 48 -23 52 -18 10 12 -20 14 -35 28 -33 30 7 7
482 -188 608 -250 81 -40 121 -55 110 -42 -9 11 -54 60 -99 109 -46 49 -83 92
-83 97 0 14 203 -88 244 -122 25 -21 37 -27 33 -16 -8 21 -14 24 214 -100
l156 -84 81 -131 c45 -72 116 -199 157 -282 63 -126 85 -185 135 -356 32 -113
71 -261 85 -330 15 -69 33 -150 40 -180 11 -50 108 -385 120 -419 4 -9 17 4
38 37 18 28 53 82 78 119 64 93 120 206 173 348 44 117 51 123 47 35 l-1 -25
14 26 c12 21 54 157 95 309 9 35 9 35 9 5 0 -16 -3 -53 -7 -82 -11 -80 4 -54
34 59 15 57 33 121 41 143 7 22 25 91 39 153 28 130 41 162 118 294 30 53 61
112 68 132 7 20 16 36 20 36 3 0 12 -28 19 -62 11 -57 13 -61 26 -43 8 10 15
28 15 39 1 12 5 5 9 -14 l7 -35 12 29 c14 36 17 59 31 298 6 104 14 216 18
250 l8 63 17 -125 c9 -69 17 -145 18 -170 0 -39 2 -42 10 -21 18 44 22 223 9
331 -8 58 -13 112 -12 121 3 20 -78 264 -123 368 -19 45 -33 81 -30 81 2 0 34
-56 71 -125 37 -68 69 -123 71 -121 5 5 -86 205 -155 341 -37 71 -99 178 -138
237 -68 103 -66 120 6 43 14 -15 38 -36 54 -48 l30 -21 -34 49 c-80 118 -173
229 -297 353 -73 73 -133 135 -133 138 0 3 -38 52 -85 109 -86 105 -258 272
-375 365 -36 29 -67 54 -70 57 -10 10 116 -49 190 -88 91 -49 75 -31 -40 46
-98 65 -348 194 -527 271 -67 29 -149 72 -180 96 -114 87 -223 159 -231 154
-5 -3 -24 11 -43 31 -111 116 -411 252 -799 361 -180 51 -457 114 -479 109 -9
-2 -50 14 -91 34 -137 68 -271 100 -480 116 -84 6 -97 9 -65 14 l40 6 -40 1
c-72 2 -419 -17 -443 -24 -16 -4 -20 -9 -12 -14 7 -4 -3 -10 -24 -14 -27 -5
-77 5 -212 44 -96 27 -208 55 -247 61 -40 5 -99 15 -132 20 -33 6 -89 10 -125
9 -75 -1 -73 12 3 21 l52 6 -45 0 c-25 0 -98 -3 -163 -8z m383 -5385 c128 -17
366 -64 509 -100 107 -27 457 -194 596 -285 102 -67 280 -244 379 -378 197
-266 342 -580 361 -783 3 -35 8 -80 10 -100 l5 -38 -49 0 c-68 0 -477 47 -524
61 -21 5 -41 18 -43 27 -33 101 -21 97 -544 152 -332 34 -390 47 -645 140
-104 38 -242 85 -305 105 -302 95 -764 231 -935 276 -104 27 -206 54 -226 59
l-37 10 9 43 c42 191 157 402 271 500 187 158 442 275 678 311 186 28 276 28
490 0z m4590 -921 c361 -57 780 -316 970 -597 176 -262 270 -615 271 -1015 1
-86 -2 -177 -6 -203 -7 -45 -8 -46 -32 -37 -13 5 -26 9 -27 9 -2 0 -7 -30 -10
-67 -17 -166 -57 -321 -132 -501 -122 -296 -349 -558 -579 -666 -122 -58 -309
-78 -470 -51 -200 33 -460 140 -604 248 -84 62 -196 173 -255 251 -66 88 -104
158 -77 142 5 -4 11 -1 13 6 3 7 21 -8 43 -32 78 -91 234 -237 311 -292 285
-204 657 -297 889 -224 125 40 197 87 325 216 177 177 303 385 394 647 30 87
76 285 76 327 0 8 -31 19 -82 30 -441 93 -644 158 -1492 481 -153 58 -328 119
-390 135 l-111 28 -8 38 c-10 49 -47 88 -117 124 -70 35 -182 70 -227 70 -28
0 -33 3 -29 18 2 9 10 44 16 77 45 239 126 400 274 550 250 252 637 357 1066
288z m-1572 -258 c79 -52 180 -140 215 -184 27 -34 35 -75 18 -86 -6 -3 -72
57 -148 133 -76 76 -163 160 -193 186 l-55 49 50 -28 c28 -15 78 -47 113 -70z
m-3384 -1748 c-2 -21 55 -35 67 -16 8 12 11 11 20 -1 9 -13 10 -12 5 2 -5 18
9 35 17 21 3 -5 0 -55 -7 -113 l-11 -105 -40 -6 c-22 -4 -41 -6 -42 -5 -3 3
-21 127 -28 189 -4 45 -3 58 7 54 7 -2 12 -11 12 -20z m469 -12 c-10 -8 -15
-17 -10 -21 4 -4 59 -10 122 -12 117 -5 122 -3 115 33 -1 7 2 7 8 0 6 -6 5
-39 -4 -90 -7 -44 -13 -108 -13 -142 l-1 -62 -42 -11 c-24 -6 -58 -15 -77 -20
-19 -5 -45 -22 -57 -37 -15 -19 -26 -25 -33 -18 -16 16 -41 192 -41 296 0 96
0 97 25 97 23 0 24 -2 8 -13z m897 -40 c0 -8 -4 -15 -10 -15 -5 0 -10 5 -10
10 0 6 -7 10 -15 10 -8 0 -15 -7 -15 -15 0 -13 13 -15 78 -13 67 3 77 5 74 21
-2 9 2 17 8 17 30 0 -12 -87 -99 -209 -38 -53 -88 -114 -111 -136 l-41 -40 7
30 c4 17 10 35 14 40 21 29 50 159 51 233 l1 82 34 0 c24 0 34 -5 34 -15z
m1815 -3094 c28 -41 154 -151 172 -151 5 0 17 28 26 63 l16 62 -5 -62 c-4 -37
-2 -63 4 -63 5 0 28 42 50 93 l41 92 2 -60 c1 -33 4 -73 8 -90 l6 -30 42 60
c23 33 52 73 65 89 l24 28 83 -123 c103 -152 108 -157 81 -90 -44 113 -8 55
94 -151 58 -117 105 -204 105 -193 1 11 -6 60 -14 109 -8 49 -13 91 -11 93 2
2 27 -80 56 -183 43 -152 50 -188 39 -195 -14 -9 -82 -30 -84 -26 -1 1 -12 29
-25 62 -73 188 -174 342 -257 395 -59 38 -109 44 -207 27 -106 -19 -129 -11
-221 74 -82 76 -159 129 -186 129 -30 0 -29 14 3 99 l31 81 17 -49 c9 -28 29
-68 45 -90z m-464 -23 c-36 -48 -47 -56 -123 -82 -46 -16 -150 -55 -233 -87
-82 -32 -151 -56 -153 -54 -6 6 122 68 253 121 66 27 158 72 205 101 47 28 86
52 88 52 1 1 -15 -23 -37 -51z m-741 -1083 c285 -56 691 -112 1055 -144 61 -6
196 -19 301 -30 243 -26 279 -21 421 55 56 29 110 54 120 54 10 0 66 -23 124
-52 l106 -53 61 -122 c34 -68 60 -123 59 -123 -2 0 -37 50 -77 110 -41 61 -78
110 -82 110 -4 0 2 -21 13 -47 36 -85 110 -334 155 -525 24 -103 44 -193 44
-200 0 -7 -22 37 -48 97 -48 110 -141 289 -147 283 -3 -3 94 -460 120 -565 3
-13 1 -23 -4 -23 -5 0 -33 58 -62 130 -29 71 -54 128 -55 127 -2 -2 8 -57 21
-122 13 -66 36 -246 50 -400 14 -154 30 -304 35 -334 6 -30 10 -59 10 -65 -1
-6 -29 62 -63 151 -34 89 -66 165 -71 170 -5 5 -7 1 -3 -9 3 -10 9 -57 13
-105 5 -72 -2 -143 -35 -391 -23 -166 -41 -324 -41 -350 l-1 -47 -16 30 c-9
16 -34 75 -55 130 l-39 100 6 -110 c3 -60 8 -137 12 -169 4 -41 3 -57 -5 -52
-18 11 -50 107 -108 327 l-55 209 12 107 c17 161 6 326 -36 532 -19 96 -34
176 -32 178 4 3 91 -313 103 -375 4 -18 8 -31 10 -30 1 2 -4 103 -11 225 -17
268 -29 310 -164 581 l-90 180 42 22 c36 20 166 166 155 174 -2 2 -64 -8 -138
-21 -122 -23 -163 -25 -435 -26 -309 -1 -463 8 -710 44 -156 22 -473 84 -665
128 -74 18 -129 26 -134 21 -31 -31 62 -167 175 -257 57 -45 233 -153 250
-153 3 0 -27 -115 -67 -256 -107 -372 -138 -591 -132 -913 2 -123 -2 -193 -14
-271 -10 -58 -18 -166 -19 -240 -1 -74 -4 -124 -6 -110 -18 108 -75 366 -82
373 -10 10 -19 -81 -26 -288 -6 -151 -13 -240 -20 -233 -2 2 -18 84 -35 183
-17 99 -36 191 -42 205 l-11 25 -18 -42 c-24 -53 -62 -195 -104 -387 l-32
-151 -7 80 c-13 141 -37 349 -42 369 -13 41 -28 -10 -55 -186 -16 -101 -29
-190 -29 -198 -1 -13 -2 -12 -10 1 -5 9 -21 99 -36 200 -24 174 -29 198 -37
188 -8 -9 -146 -337 -168 -399 l-24 -65 -2 80 c-3 107 -24 305 -32 305 -4 0
-25 -77 -47 -170 -23 -102 -42 -163 -46 -153 -3 10 -16 152 -27 317 -12 164
-24 302 -27 307 -9 16 -25 -1 -51 -55 l-24 -51 6 60 c5 48 46 220 91 385 l7
25 -20 -25 c-10 -14 -82 -114 -158 -223 -76 -108 -139 -196 -141 -195 -1 2 18
71 42 153 65 216 115 415 108 427 -4 6 -32 -54 -63 -133 -31 -79 -63 -153 -69
-164 l-13 -20 5 20 c12 48 59 374 96 665 25 204 60 419 98 610 33 162 63 312
66 333 7 35 9 37 44 37 131 0 325 63 527 170 l150 80 115 -6 c68 -3 186 -19
290 -39z m1575 -713 c15 -74 25 -136 22 -138 -5 -5 -177 212 -177 224 0 12
113 61 122 53 3 -3 18 -66 33 -139z m-3807 -4678 c103 -25 230 -54 282 -65 52
-11 104 -26 115 -33 12 -8 62 -28 111 -46 77 -27 117 -34 301 -50 303 -27 378
-47 605 -161 89 -44 119 -55 114 -42 -14 35 -37 145 -33 157 8 22 86 -115 97
-172 7 -31 15 -66 19 -77 11 -28 33 185 35 333 l1 119 23 -61 c30 -78 73 -146
114 -176 18 -14 131 -73 250 -132 222 -109 299 -155 401 -239 91 -76 110 -102
103 -146 -4 -21 -13 -123 -20 -228 -12 -158 -21 -217 -54 -350 -69 -276 -114
-526 -152 -854 -39 -334 -46 -845 -12 -859 10 -3 21 4 31 19 9 13 78 104 154
201 87 113 144 178 155 178 13 0 25 -18 42 -57 100 -248 129 -300 272 -481
291 -371 483 -655 593 -877 65 -132 131 -334 171 -526 24 -114 25 -385 2 -484
-24 -103 -76 -233 -96 -239 -9 -3 -87 -10 -172 -17 -185 -14 -505 -7 -700 16
-789 93 -1621 405 -2500 938 -91 55 -282 164 -425 242 -1571 856 -2717 1666
-3646 2577 -80 79 -127 126 -105 106 l41 -37 35 25 35 26 -34 -31 c-31 -28
-33 -31 -15 -37 10 -4 22 -9 26 -11 4 -2 5 6 3 17 -2 12 0 18 6 15 5 -4 37 16
72 43 168 132 396 300 401 294 3 -3 6 -1 6 5 0 6 38 39 84 74 46 35 82 68 79
73 -4 5 -1 6 5 2 13 -8 185 122 177 134 -3 5 0 12 6 16 8 4 9 3 5 -4 -4 -7 -4
-12 -1 -12 4 0 202 146 260 192 6 5 37 29 70 54 33 25 59 50 57 56 -1 5 1 7 6
4 13 -8 53 24 46 36 -4 7 -2 8 4 4 10 -6 145 86 139 95 -1 2 0 3 2 2 2 -1 26
15 55 36 71 52 73 53 93 42 40 -22 275 -94 383 -117 101 -21 140 -24 325 -24
160 0 1844 70 1999 83 55 4 36 23 -46 47 -150 42 -551 177 -693 233 -150 60
-286 122 -245 112 288 -68 483 -111 650 -143 291 -56 299 -57 195 -19 -101 37
-323 135 -460 201 -120 59 -88 59 153 0z m3598 -162 c-14 -55 -28 -108 -31
-118 -4 -11 12 15 35 56 22 41 39 70 38 65 -2 -6 -21 -61 -43 -123 -45 -125
-32 -117 -133 -80 -29 11 -52 24 -50 29 6 16 201 279 205 275 2 -2 -7 -49 -21
-104z"/>
<path d="M8389 21236 c-82 -34 -104 -52 -159 -125 -66 -87 -105 -199 -137
-386 -44 -262 -22 -463 101 -905 71 -253 76 -277 106 -530 45 -384 104 -614
197 -777 77 -137 194 -233 287 -236 55 -2 76 15 76 62 0 42 -55 128 -202 318
-250 322 -324 579 -253 888 68 297 264 918 314 994 96 144 208 96 379 -164 37
-55 90 -145 118 -200 111 -213 100 -247 -121 -375 -212 -123 -292 -190 -377
-314 -77 -112 -125 -289 -115 -428 12 -172 116 -294 367 -432 80 -44 219 -122
310 -175 91 -52 182 -103 204 -114 76 -37 176 -21 194 33 16 44 -4 72 -63 88
-330 88 -402 128 -465 256 -57 116 -58 240 -2 354 25 51 105 152 120 152 23
-1 37 -30 64 -131 16 -63 38 -134 49 -158 41 -94 95 -137 115 -93 4 9 11 94
14 187 5 125 13 192 29 255 38 148 38 147 84 165 38 14 45 22 65 75 l24 60
-126 239 c-69 132 -160 320 -202 418 -169 395 -292 600 -468 782 -171 175
-282 241 -406 240 -45 0 -82 -7 -121 -23z"/>
<path d="M16802 19698 c-133 -160 -201 -268 -243 -384 -31 -84 -31 -233 -1
-330 40 -131 131 -242 237 -290 63 -29 162 -51 260 -58 60 -5 65 -4 35 5 -19
6 -80 24 -135 41 -131 40 -200 76 -257 135 -87 90 -124 206 -115 363 10 163
63 286 209 483 49 64 86 117 83 117 -2 0 -35 -37 -73 -82z"/>
<path d="M17418 19386 c-139 -44 -206 -75 -256 -121 -70 -62 -79 -135 -27
-214 63 -94 133 -121 318 -122 114 0 160 5 342 40 303 58 307 58 457 22 70
-17 131 -31 136 -31 12 0 32 78 32 125 0 42 -20 94 -43 114 -15 12 -15 15 4
30 21 17 19 18 -90 65 -245 104 -349 126 -593 125 -167 0 -177 -1 -280 -33z"/>
<path d="M18955 19156 c-16 -7 -59 -35 -94 -61 -90 -66 -351 -285 -351 -293 0
-15 186 -77 231 -77 85 0 141 67 225 271 42 103 52 164 29 170 -5 2 -23 -3
-40 -10z"/>
</g>
</svg>
